<svg height="512" viewBox="0 0 60 60" width="512" xmlns="http://www.w3.org/2000/svg"><g id="009---Keyboard" fill="none" transform="translate(-2 -2)"><rect id="Rectangle-path" fill="#547580" height="30" rx="5" transform="matrix(.707 -.707 .707 .707 -13.255 32)" width="58" x="3" y="17"/><path id="Shape" d="m30.23 54.98-4.59 4.6-.38.33-11.29-11.29c-.3899779-.3930079-.3899779-1.0269921 0-1.42l2.83-2.83 6.36 6.37c.3930079.3899779 1.0269921.3899779 1.42 0l.7-.71z" fill="#f5efca"/><path id="Shape" d="m54.98 30.23-4.95 4.95-4.95-4.95.71-.7c.3899779-.3930079.3899779-1.0269921 0-1.42l-6.37-6.36 2.13-2.12 6.36 6.36c.3900375.3877236 1.0199625.3877236 1.41 0l.71-.71z" fill="#f9eab0"/><path id="Shape" d="m25.99 49.32-.71.71-.7.71c-.3930079.3899779-1.0269921.3899779-1.42 0l-6.36-6.37 1.41-1.41 1.42-1.41 6.36 6.36c.3877236.3900375.3877236 1.0199625 0 1.41z" fill="#2c2f38"/><path id="Shape" d="m35.18 50.03-4.95 4.95-4.95-4.95.71-.71c.3877236-.3900375.3877236-1.0199625 0-1.41l-6.36-6.36 2.12-2.13 6.36 6.37c.3930079.3899779 1.0269921.3899779 1.42 0l.7-.71z" fill="#f9eab0"/><path id="Shape" d="m40.13 45.08-4.95 4.95-4.95-4.95.71-.71c.3877236-.3900375.3877236-1.0199625 0-1.41l-6.36-6.36 3.53-3.54z" fill="#f5efca"/><path id="Shape" d="m30.94 44.37-.71.71-.7.71c-.3930079.3899779-1.0269921.3899779-1.42 0l-6.36-6.37 1.41-1.41 1.42-1.41 6.36 6.36c.3877236.3900375.3877236 1.0199625 0 1.41z" fill="#2c2f38"/><path id="Shape" d="m45.08 40.13-4.95 4.95-12.02-12.02 3.54-3.53 6.36 6.36c.3900375.3877236 1.0199625.3877236 1.41 0l.71-.71z" fill="#f9eab0"/><path id="Shape" d="m40.84 34.47-1.42 1.42c-.3900375.3877236-1.0199625.3877236-1.41 0l-6.36-6.36 2.82-2.83 6.37 6.36c.3877236.3900375.3877236 1.0199625 0 1.41z" fill="#2c2f38"/><path id="Shape" d="m50.03 35.18-4.95 4.95-4.95-4.95.71-.71c.3877236-.3900375.3877236-1.0199625 0-1.41l-6.37-6.36 2.13-2.12 6.36 6.36c.3900375.3877236 1.0199625.3877236 1.41 0l.71-.71z" fill="#f5efca"/><path id="Shape" d="m45.79 29.53-.71.7-.71.71c-.3900375.3877236-1.0199625.3877236-1.41 0l-6.36-6.36 1.41-1.42 1.41-1.41 6.37 6.36c.3899779.3930079.3899779 1.0269921 0 1.42z" fill="#2c2f38"/><path id="Shape" d="m59.91 25.26-.33.38-4.6 4.59-4.95-4.95.71-.7c.3899779-.3930079.3899779-1.0269921 0-1.42l-6.37-6.36 2.83-2.83c.3930079-.3899779 1.0269921-.3899779 1.42 0z" fill="#f5efca"/><path id="Shape" d="m50.74 24.58-.71.7-.71.71c-.3900375.3877236-1.0199625.3877236-1.41 0l-6.36-6.36 1.41-1.42 1.41-1.41 6.37 6.36c.3899779.3930079.3899779 1.0269921 0 1.42z" fill="#2c2f38"/><rect id="Rectangle-path" fill="#81ccb8" height="5" rx="1" transform="matrix(.707 -.707 .707 .707 -10.765 25.99)" width="12" x="19.99" y="23.49"/><circle id="Oval" cx="11.494" cy="40.485" fill="#3f5c6c" r="3.5"/><circle id="Oval" cx="40.485" cy="11.494" fill="#3f5c6c" r="3.5"/><g fill="#35495e"><path id="Shape" d="m17.857 33c-.4048357.000319-.7699237-.24348-.9247586-.6175364-.1548348-.3740564-.0688653-.8045636.2177586-1.0904636l.708-.707c.2527654-.2525868.6210837-.3511379.966213-.25853s.6146362.3623054.707.7075c.0923639.3451947-.0064476.7134432-.259213.96603l-.708.708c-.1876563.1871827-.4419486.2922087-.707.292z"/><path id="Shape" d="m19.979 35.121c-.4043959-.0000863-.7689341-.2437275-.923678-.6173454-.1547439-.373618-.0692299-.8036603.216678-1.0896546l.707-.707c.3904653-.3907414 1.0237585-.3909653 1.4145-.0005.3907414.3904653.3909653 1.0237585.0005 1.4145l-.707.707c-.1877377.1877946-.4424587.2932088-.708.293z"/><path id="Shape" d="m31.293 19.565c-.4043959-.0000863-.7689341-.2437275-.923678-.6173454-.1547439-.373618-.0692299-.8036603.216678-1.0896546l.707-.707c.3923789-.3789722 1.0160848-.3735524 1.4018186.0121814s.3911536 1.0094397.0121814 1.4018186l-.707.707c-.1874927.1875494-.4418052.2929434-.707.293z"/><path id="Shape" d="m33.414 21.687c-.4048357.000319-.7699237-.24348-.9247586-.6175364-.1548348-.3740564-.0688653-.8045636.2177586-1.0904636l.707-.707c.2510745-.2599566.6228779-.3642126.9725073-.2726972.3496295.0915155.6226744.3645604.7141899.7141899.0915154.3496294-.0127406.7214328-.2726972.9725073l-.707.708c-.1874927.1875494-.4418052.2929434-.707.293z"/></g><path id="Shape" d="m11 21c-.5522847 0-1-.4477153-1-1v-17c.000053-.50490243.376473-.93056181.8775776-.99237319s.9696781.25961783 1.0924224.74937319c.798 3.189 5.979 3.243 6.03 3.243.5522847 0 1 .44771525 1 1s-.4477153 1-1 1c-2.1323899-.01798452-4.2148224-.64757327-6-1.814v13.814c0 .2652165-.1053568.5195704-.2928932.7071068s-.4418903.2928932-.7071068.2928932z" fill="#c03a2b"/><path id="Shape" d="m62 42v16c0 .5522847-.4477153 1-1 1s-1-.4477153-1-1v-13h-9v13c0 .5522847-.4477153 1-1 1s-1-.4477153-1-1v-16c.0032948-1.1032019.8967981-1.9967052 2-2h9c1.1032019.0032948 1.9967052.8967981 2 2z" fill="#c03a2b"/><ellipse id="Oval" cx="8" cy="20" fill="#e64c3c" rx="4" ry="3"/><ellipse id="Oval" cx="47" cy="58" fill="#e64c3c" rx="4" ry="3"/><ellipse id="Oval" cx="58" cy="58" fill="#e64c3c" rx="4" ry="3"/></g></svg>